<?xml version="1.0" encoding="UTF-8" standalone="no"?>
<!DOCTYPE svg PUBLIC "-//W3C//DTD SVG 1.1//EN" "http://www.w3.org/Graphics/SVG/1.1/DTD/svg11.dtd">
<svg width="100%" height="100%" viewBox="0 0 3480 1966" version="1.1" xmlns="http://www.w3.org/2000/svg" xmlns:xlink="http://www.w3.org/1999/xlink" xml:space="preserve" xmlns:serif="http://www.serif.com/" style="fill-rule:evenodd;clip-rule:evenodd;stroke-linejoin:round;stroke-miterlimit:2;">
    <g transform="matrix(1.00537,0,0,1,-1907.01,-5192.3)">
        <path d="M5358,6864C5358,6809.91 5314.32,6766 5260.52,6766L1994.31,6766C1940.51,6766 1896.83,6809.91 1896.83,6864L1896.83,7060C1896.83,7114.09 1940.51,7158 1994.31,7158L5260.52,7158C5314.32,7158 5358,7114.09 5358,7060L5358,6864Z" style="fill:rgb(170,49,54);"/>
    </g>
    <g transform="matrix(2.23572,0,0,2.23572,-7310.04,-9328.47)">
        <path d="M3417.24,4249.65L3417.24,4624.03L3416.8,4667.57L3418.14,4705.27C3421.43,4741.48 3434.89,4762.58 3458.51,4768.57C3474.96,4773.06 3487.37,4775.3 3495.74,4775.3C3504.71,4775.3 3509.34,4777.93 3509.64,4783.19C3510.24,4790.79 3505.01,4794.59 3493.94,4794.59C3488.86,4794.59 3478.84,4793.99 3463.89,4792.79C3454.32,4792.2 3438.77,4791.9 3417.24,4791.9L3385.4,4791L3350.41,4791.45C3332.77,4791.45 3319.46,4792.05 3310.49,4793.24C3298.83,4794.74 3290.31,4795.48 3284.93,4795.48C3277.15,4795.48 3273.26,4792.56 3273.26,4786.72C3273.26,4781.17 3278.2,4777.66 3288.07,4776.2C3311.39,4772.61 3327.31,4759.47 3335.84,4736.76C3344.36,4714.05 3348.62,4673.11 3348.62,4613.95L3348.62,4341.9C3348.62,4279.16 3344.88,4239.49 3337.41,4222.91C3329.93,4206.32 3311.24,4196.39 3281.34,4193.1C3273.26,4192.49 3269.38,4189.43 3269.68,4183.92C3269.98,4176.89 3275.81,4173.37 3287.17,4173.37C3292.85,4173.37 3300.48,4174.12 3310.05,4175.61C3328.88,4178.3 3344.43,4179.65 3356.69,4179.65C3375.83,4179.65 3403.64,4178 3440.12,4174.71C3458.96,4173.22 3474.36,4172.47 3486.32,4172.47C3548.82,4172.47 3599.57,4187.5 3638.6,4217.55C3677.62,4247.6 3697.13,4286.85 3697.13,4335.29C3697.13,4393.9 3673.21,4440.1 3625.37,4473.89C3589.48,4499 3551.51,4511.56 3511.44,4511.56C3492.6,4511.56 3475.33,4509.52 3459.63,4505.42C3443.93,4501.32 3436.38,4496.94 3436.98,4492.26C3437.58,4488.68 3440.41,4486.89 3445.48,4486.89C3447.87,4486.89 3450.85,4487.34 3454.43,4488.24C3461.3,4490.33 3472.33,4491.38 3487.55,4491.38C3530.51,4491.38 3564.89,4479.53 3590.69,4455.83C3616.5,4432.14 3629.4,4400.64 3629.4,4361.35C3629.4,4316.05 3612.39,4278.56 3578.38,4248.86C3544.36,4219.16 3501.24,4204.32 3449.02,4204.32C3437.09,4204.32 3428.88,4206.56 3424.41,4211.05C3419.93,4215.54 3417.69,4224.07 3417.69,4236.64L3417.24,4249.65Z" style="fill:rgb(40,40,40);fill-rule:nonzero;"/>
        <path d="M4055.06,4735.38C4020.37,4780.23 3978.21,4802.66 3928.57,4802.66C3886.71,4802.66 3854.04,4789.73 3830.57,4763.86C3807.1,4738 3795.36,4701.89 3795.36,4655.54L3795.81,4625.94L3795.81,4477.47C3795.81,4462.22 3792.67,4451.61 3786.39,4445.63C3780.11,4439.65 3768.45,4436.21 3751.4,4435.31C3743.93,4434.73 3740.34,4431.66 3740.64,4426.12C3740.94,4420.86 3750.17,4417.8 3768.34,4416.92L3802.3,4415.58C3809.74,4414.98 3820.92,4412.89 3835.81,4409.3C3839.98,4408.1 3843.26,4407.5 3845.64,4407.5C3853.68,4407.5 3857.71,4414.53 3857.71,4428.58L3857.71,4435.31L3855.91,4635.81L3855.91,4650.16L3863.1,4704.43C3869.39,4723.57 3881.08,4739.42 3898.17,4751.98C3915.25,4764.54 3933.83,4770.82 3953.91,4770.82C3980.28,4770.82 4003.74,4763.07 4024.27,4747.58C4044.8,4732.09 4055.06,4714.42 4055.06,4694.57L4055.06,4480.17C4055.06,4463.12 4052.14,4451.46 4046.31,4445.18C4040.48,4438.9 4029.64,4435.76 4013.8,4435.76C4004.23,4435.76 3999.44,4432.98 3999.44,4427.44C3999.44,4420.72 4004.83,4417.22 4015.59,4416.92L4030.39,4416.03L4061.79,4414.68C4071.95,4414.08 4083.62,4411.69 4096.77,4407.5C4100.96,4406.31 4104.55,4405.56 4107.54,4405.26C4113.82,4404.96 4116.96,4410.34 4116.96,4421.39L4116.96,4712.58C4116.96,4735.57 4119.43,4750.73 4124.36,4758.05C4129.29,4765.36 4139.39,4769.02 4154.64,4769.02L4161.81,4769.02L4168.09,4768.57C4174.67,4768.57 4178.11,4770.87 4178.41,4775.48C4178.71,4781.91 4170.03,4785.59 4152.39,4786.52L4124.14,4788.31C4104.7,4789.21 4092.14,4790.4 4086.46,4791.9C4079.28,4793.69 4073.75,4794.59 4069.86,4794.59C4060.29,4794.59 4055.51,4780.58 4055.51,4752.56L4055.06,4735.38Z" style="fill:rgb(40,40,40);fill-rule:nonzero;"/>
        <path d="M4330.7,4229.44C4337.92,4229.44 4345.29,4235.44 4352.8,4247.46L4363.62,4264.59C4366.63,4268.8 4368.14,4272.56 4368.14,4275.86C4368.44,4282.77 4363.32,4292.38 4352.8,4304.7C4342.28,4317.02 4333.86,4323.18 4327.54,4323.18C4321.52,4323.18 4313.56,4317.17 4303.63,4305.15C4293.71,4293.13 4288.75,4283.67 4288.75,4276.76C4288.75,4269.85 4294.24,4260.23 4305.21,4247.91C4316.19,4235.59 4324.69,4229.44 4330.7,4229.44ZM4358.72,4718.27C4358.72,4739.52 4361.04,4753.74 4365.67,4760.93C4370.31,4768.11 4380.1,4772.76 4395.05,4774.85L4415.68,4777.1C4426.45,4778.56 4431.68,4782.35 4431.38,4788.48C4431.08,4793.45 4427.04,4795.93 4419.24,4795.93C4414.15,4795.93 4404.4,4795.25 4390.01,4793.88C4381.92,4793.2 4371.43,4792.86 4358.54,4792.86L4329.75,4792.35L4296.93,4794.14C4290.93,4794.44 4286.28,4794.89 4282.99,4795.48C4275.19,4796.38 4269.8,4796.83 4266.8,4796.83C4258.7,4796.83 4254.66,4794.07 4254.66,4788.55C4254.66,4783.95 4257.35,4780.73 4262.73,4778.89L4271.25,4776.2C4280.82,4772.92 4287.48,4767.25 4291.21,4759.18C4294.95,4751.12 4296.82,4738.13 4296.82,4720.22L4296.82,4524.94C4296.82,4500.15 4294.43,4484.02 4289.64,4476.56C4284.86,4469.1 4274.54,4465.36 4258.69,4465.36C4247.33,4465.36 4241.8,4463.02 4242.1,4458.34C4242.4,4454.25 4250.05,4449.86 4265.07,4445.18C4281.88,4439.5 4303.2,4429.93 4329.02,4416.47L4352.89,4405.26C4356.77,4405.56 4358.72,4409.15 4358.72,4416.04L4358.72,4718.27Z" style="fill:rgb(40,40,40);fill-rule:nonzero;"/>
        <path d="M4526.92,4804.29L4526.92,4801.15C4506.59,4785.62 4496.42,4768.75 4496.42,4750.53C4496.42,4715.58 4513.91,4685.86 4548.9,4661.37C4509.13,4637.75 4489.24,4600.82 4489.24,4550.59C4489.24,4511.71 4502.32,4479.34 4528.49,4453.48C4554.65,4427.61 4587.47,4414.68 4626.94,4414.68C4662.53,4414.68 4694.52,4423.65 4722.93,4441.59C4733.1,4448.17 4740.42,4451.46 4744.91,4451.46C4755.67,4451.46 4767.78,4447.65 4781.24,4440.02C4794.69,4432.4 4802.77,4424.85 4805.46,4417.37L4811.29,4400.33C4812.19,4397.04 4814.58,4395.24 4818.47,4394.94C4823.55,4394.65 4826.09,4398.25 4826.09,4405.76C4826.09,4411.76 4823.77,4423.4 4819.14,4440.67C4814.5,4457.94 4810.39,4470.03 4806.8,4476.94C4801.72,4486.85 4792.9,4493.61 4780.34,4497.21C4774.66,4499 4771.82,4501.68 4771.82,4505.26C4771.82,4507.35 4772.27,4510.19 4773.16,4513.76C4775.86,4523.31 4777.2,4535.99 4777.2,4551.8C4777.2,4585.8 4763.3,4615.48 4735.49,4640.84C4707.68,4666.19 4675.23,4678.87 4638.15,4678.87C4622.31,4678.87 4604.52,4677.07 4584.78,4673.48C4579.1,4672.29 4574.31,4671.69 4570.43,4671.69C4561.05,4671.69 4551.98,4676.9 4543.21,4687.31C4534.44,4697.73 4530.06,4708.59 4530.06,4719.89C4530.06,4735.37 4538.3,4746.38 4554.77,4752.92C4571.24,4759.47 4599.25,4762.74 4638.79,4762.74C4697.79,4762.74 4739.5,4768.87 4763.91,4781.13C4788.32,4793.39 4800.53,4814.47 4800.53,4844.38C4800.53,4878.76 4783.41,4907.92 4749.17,4931.84C4714.93,4955.76 4672.99,4967.72 4623.35,4967.72C4575.51,4967.72 4536.71,4959.51 4506.96,4943.1C4477.21,4926.68 4462.33,4905.03 4462.33,4878.17C4462.33,4843.54 4483.86,4818.92 4526.92,4804.29ZM4628.76,4429.93C4606.15,4429.93 4587.04,4440.06 4571.43,4460.31C4555.81,4480.57 4548,4504.99 4548,4533.59C4548,4570.82 4556.4,4601.35 4573.21,4625.18C4590.02,4649.01 4611.36,4660.93 4637.24,4660.93C4661.63,4660.93 4681.34,4651.32 4696.36,4632.11C4711.38,4612.89 4718.89,4587.65 4718.89,4556.37C4718.89,4520.03 4710.34,4489.88 4693.23,4465.9C4676.13,4441.92 4654.64,4429.93 4628.76,4429.93ZM4546.65,4811.09C4518.25,4823.66 4504.04,4844.31 4504.04,4873.03C4504.04,4896.97 4514.02,4915.74 4533.98,4929.36C4553.93,4942.97 4581.31,4949.78 4616.12,4949.78C4656.93,4949.78 4690.99,4941.93 4718.3,4926.23C4745.61,4910.53 4759.26,4890.87 4759.26,4867.25C4759.26,4839.44 4738.18,4825.54 4696.02,4825.54C4690.34,4825.54 4674.49,4824.64 4648.47,4822.85L4600.93,4819.68C4578.5,4818.17 4560.41,4815.31 4546.65,4811.09Z" style="fill:rgb(40,40,40);fill-rule:nonzero;"/>
    </g>
    <g transform="matrix(0.772707,0,0,0.772707,-3071.52,-1819.52)">
        <path d="M4127.35,4780L4127.35,4512.39L4181.83,4512.39L4181.83,4734.54L4317.29,4734.54L4317.29,4780L4127.35,4780Z" style="fill:white;fill-rule:nonzero;"/>
        <path d="M4356.12,4780L4356.12,4510.18L4556.19,4510.18L4556.19,4555.83L4410.6,4555.83L4410.6,4615.64L4546.06,4615.64L4546.06,4661.1L4410.6,4661.1L4410.6,4734.54L4561.34,4734.54L4561.34,4780L4356.12,4780Z" style="fill:white;fill-rule:nonzero;"/>
        <path d="M4733.06,4680.8L4733.06,4635.34L4850.48,4635.34L4850.48,4742.82C4839.07,4753.86 4822.54,4763.59 4800.88,4771.99C4779.22,4780.4 4757.29,4784.6 4735.08,4784.6C4706.86,4784.6 4682.26,4778.68 4661.28,4766.84C4640.3,4755 4624.53,4738.07 4613.98,4716.04C4603.43,4694.02 4598.15,4670.06 4598.15,4644.17C4598.15,4616.07 4604.04,4591.1 4615.82,4569.26C4627.6,4547.42 4644.84,4530.68 4667.54,4519.02C4684.84,4510.06 4706.37,4505.58 4732.14,4505.58C4765.63,4505.58 4791.8,4512.61 4810.63,4526.66C4829.47,4540.71 4841.59,4560.12 4846.98,4584.91L4792.87,4595.03C4789.07,4581.78 4781.92,4571.32 4771.43,4563.65C4760.94,4555.98 4747.84,4552.15 4732.14,4552.15C4708.33,4552.15 4689.41,4559.69 4675.36,4574.78C4661.31,4589.88 4654.28,4612.27 4654.28,4641.96C4654.28,4673.99 4661.4,4698.01 4675.63,4714.02C4689.87,4730.03 4708.52,4738.04 4731.59,4738.04C4743,4738.04 4754.44,4735.8 4765.91,4731.32C4777.38,4726.84 4787.23,4721.41 4795.45,4715.03L4795.45,4680.8L4733.06,4680.8Z" style="fill:white;fill-rule:nonzero;"/>
        <path d="M5144.04,4780L5084.78,4780L5061.22,4718.71L4953.36,4718.71L4931.09,4780L4873.3,4780L4978.4,4510.18L5036,4510.18L5144.04,4780ZM5043.73,4673.25L5006.55,4573.13L4970.11,4673.25L5043.73,4673.25Z" style="fill:white;fill-rule:nonzero;"/>
        <path d="M5174.41,4780L5174.41,4512.39L5228.89,4512.39L5228.89,4734.54L5364.35,4734.54L5364.35,4780L5174.41,4780Z" style="fill:white;fill-rule:nonzero;"/>
        <path d="M5635.82,4674.17L5635.82,4642.52L5750.11,4642.33L5750.11,4742.45C5732.57,4756.44 5714.47,4766.96 5695.82,4774.02C5677.17,4781.07 5658.03,4784.6 5638.4,4784.6C5611.89,4784.6 5587.81,4778.93 5566.15,4767.58C5544.5,4756.23 5528.15,4739.82 5517.11,4718.34C5506.06,4696.87 5500.54,4672.88 5500.54,4646.38C5500.54,4620.12 5506.03,4595.61 5517.01,4572.85C5528,4550.09 5543.79,4533.19 5564.41,4522.15C5585.02,4511.1 5608.76,4505.58 5635.63,4505.58C5655.14,4505.58 5672.78,4508.74 5688.55,4515.06C5704.32,4521.38 5716.68,4530.18 5725.63,4541.47C5734.59,4552.76 5741.4,4567.48 5746.06,4585.64L5713.86,4594.48C5709.81,4580.74 5704.78,4569.94 5698.76,4562.09C5692.75,4554.23 5684.16,4547.94 5673,4543.22C5661.83,4538.5 5649.44,4536.14 5635.82,4536.14C5619.5,4536.14 5605.39,4538.62 5593.49,4543.59C5581.59,4548.56 5571.98,4555.09 5564.68,4563.19C5557.38,4571.29 5551.71,4580.18 5547.66,4589.88C5540.79,4606.56 5537.35,4624.66 5537.35,4644.17C5537.35,4668.22 5541.49,4688.34 5549.78,4704.54C5558.06,4720.74 5570.11,4732.76 5585.94,4740.61C5601.77,4748.47 5618.58,4752.39 5636.37,4752.39C5651.83,4752.39 5666.92,4749.42 5681.65,4743.47C5696.37,4737.52 5707.54,4731.17 5715.14,4724.42L5715.14,4674.17L5635.82,4674.17Z" style="fill:white;fill-rule:nonzero;"/>
        <path d="M5803.3,4780L5803.3,4510.18L5922.94,4510.18C5946.98,4510.18 5965.27,4512.61 5977.78,4517.45C5990.3,4522.3 6000.3,4530.86 6007.78,4543.13C6015.27,4555.4 6019.01,4568.96 6019.01,4583.8C6019.01,4602.94 6012.81,4619.08 6000.42,4632.21C5988.03,4645.34 5968.89,4653.68 5943,4657.24C5952.44,4661.78 5959.62,4666.26 5964.53,4670.68C5974.96,4680.24 5984.84,4692.21 5994.16,4706.56L6041.09,4780L5996.19,4780L5960.48,4723.86C5950.05,4707.67 5941.46,4695.28 5934.71,4686.69C5927.97,4678.1 5921.92,4672.09 5916.59,4668.65C5911.25,4665.22 5905.82,4662.82 5900.3,4661.47C5896.25,4660.61 5889.62,4660.18 5880.42,4660.18L5839.01,4660.18L5839.01,4780L5803.3,4780ZM5839.01,4629.26L5915.76,4629.26C5932.08,4629.26 5944.84,4627.58 5954.04,4624.2C5963.24,4620.83 5970.23,4615.43 5975.02,4608.01C5979.81,4600.58 5982.2,4592.52 5982.2,4583.8C5982.2,4571.04 5977.57,4560.55 5968.3,4552.33C5959.04,4544.11 5944.41,4540 5924.41,4540L5839.01,4540L5839.01,4629.26Z" style="fill:white;fill-rule:nonzero;"/>
        <path d="M6064.1,4648.59C6064.1,4603.8 6076.12,4568.74 6100.17,4543.4C6124.22,4518.07 6155.27,4505.4 6193.3,4505.4C6218.21,4505.4 6240.66,4511.35 6260.66,4523.25C6280.66,4535.15 6295.91,4551.75 6306.4,4573.04C6316.89,4594.32 6322.14,4618.47 6322.14,4645.46C6322.14,4672.82 6316.62,4697.3 6305.57,4718.9C6294.53,4740.49 6278.89,4756.84 6258.64,4767.94C6238.4,4779.05 6216.55,4784.6 6193.12,4784.6C6167.72,4784.6 6145.02,4778.47 6125.02,4766.2C6105.02,4753.93 6089.87,4737.18 6079.56,4715.95C6069.25,4694.72 6064.1,4672.27 6064.1,4648.59ZM6100.91,4649.14C6100.91,4681.66 6109.65,4707.27 6127.14,4725.98C6144.62,4744.69 6166.55,4754.05 6192.94,4754.05C6219.81,4754.05 6241.92,4744.6 6259.28,4725.71C6276.65,4706.81 6285.33,4680 6285.33,4645.28C6285.33,4623.31 6281.62,4604.14 6274.19,4587.76C6266.77,4571.38 6255.91,4558.68 6241.62,4549.66C6227.32,4540.64 6211.28,4536.14 6193.49,4536.14C6168.21,4536.14 6146.46,4544.82 6128.24,4562.18C6110.02,4579.54 6100.91,4608.53 6100.91,4649.14Z" style="fill:white;fill-rule:nonzero;"/>
        <path d="M6545.2,4510.18L6580.91,4510.18L6580.91,4666.07C6580.91,4693.19 6577.84,4714.72 6571.71,4730.68C6565.57,4746.63 6554.5,4759.6 6538.49,4769.6C6522.47,4779.6 6501.46,4784.6 6475.45,4784.6C6450.17,4784.6 6429.5,4780.24 6413.43,4771.53C6397.35,4762.82 6385.88,4750.22 6379.01,4733.71C6372.14,4717.21 6368.7,4694.66 6368.7,4666.07L6368.7,4510.18L6404.41,4510.18L6404.41,4665.89C6404.41,4689.32 6406.59,4706.6 6410.94,4717.7C6415.3,4728.8 6422.78,4737.36 6433.4,4743.37C6444.01,4749.39 6456.98,4752.39 6472.32,4752.39C6498.58,4752.39 6517.29,4746.44 6528.46,4734.54C6539.62,4722.64 6545.2,4699.76 6545.2,4665.89L6545.2,4510.18Z" style="fill:white;fill-rule:nonzero;"/>
        <path d="M6640.36,4780L6640.36,4510.18L6742.14,4510.18C6760.05,4510.18 6773.73,4511.04 6783.18,4512.76C6796.43,4514.97 6807.54,4519.17 6816.49,4525.37C6825.45,4531.56 6832.66,4540.24 6838.12,4551.41C6843.58,4562.58 6846.31,4574.85 6846.31,4588.22C6846.31,4611.17 6839.01,4630.58 6824.41,4646.47C6809.81,4662.36 6783.43,4670.31 6745.27,4670.31L6676.06,4670.31L6676.06,4780L6640.36,4780ZM6676.06,4638.47L6745.82,4638.47C6768.89,4638.47 6785.27,4634.17 6794.96,4625.58C6804.65,4616.99 6809.5,4604.91 6809.5,4589.32C6809.5,4578.04 6806.65,4568.37 6800.94,4560.34C6795.24,4552.3 6787.72,4546.99 6778.4,4544.42C6772.38,4542.82 6761.28,4542.03 6745.08,4542.03L6676.06,4542.03L6676.06,4638.47Z" style="fill:white;fill-rule:nonzero;"/>
    </g>
</svg>
